static optimization
version=1
nRows=10
nColumns=93
inDegrees=yes
endheader
time	glut_med1_r	glut_med2_r	glut_med3_r	glut_min1_r	glut_min2_r	glut_min3_r	semimem_r	semiten_r	bifemlh_r	bifemsh_r	sar_r	add_long_r	add_brev_r	add_mag1_r	add_mag2_r	add_mag3_r	tfl_r	pect_r	grac_r	glut_max1_r	glut_max2_r	glut_max3_r	iliacus_r	psoas_r	quad_fem_r	gem_r	peri_r	rect_fem_r	vas_med_r	vas_int_r	vas_lat_r	med_gas_r	lat_gas_r	soleus_r	tib_post_r	flex_dig_r	flex_hal_r	tib_ant_r	per_brev_r	per_long_r	per_tert_r	ext_dig_r	ext_hal_r	glut_med1_l	glut_med2_l	glut_med3_l	glut_min1_l	glut_min2_l	glut_min3_l	semimem_l	semiten_l	bifemlh_l	bifemsh_l	sar_l	add_long_l	add_brev_l	add_mag1_l	add_mag2_l	add_mag3_l	tfl_l	pect_l	grac_l	glut_max1_l	glut_max2_l	glut_max3_l	iliacus_l	psoas_l	quad_fem_l	gem_l	peri_l	rect_fem_l	vas_med_l	vas_int_l	vas_lat_l	med_gas_l	lat_gas_l	soleus_l	tib_post_l	flex_dig_l	flex_hal_l	tib_ant_l	per_brev_l	per_long_l	per_tert_l	ext_dig_l	ext_hal_l	ercspn_r	ercspn_l	intobl_r	intobl_l	extobl_r	extobl_l
1.148000	342.306905	175.949689	154.015760	61.724424	63.272406	64.622920	45.648655	26.007968	7.844538	313.047404	13.510362	0.000000	0.000000	0.000000	0.000000	0.000000	31.563314	0.000000	0.000000	0.000000	0.000000	0.000000	240.738186	292.432021	0.000000	0.000000	34.302426	0.000000	0.000000	0.000000	0.000000	1277.115591	265.665024	742.699387	419.353007	4.547261	2.370429	94.189493	0.000000	0.000000	0.000000	7.589325	5.602099	5.033077	0.000000	0.000000	1.323512	0.000000	0.000000	217.888215	25.569549	74.868601	90.890680	0.626296	22.332759	9.107355	2.966372	1.868385	0.000000	0.000000	1.579142	4.121245	0.000000	0.000000	0.000000	58.672765	54.900098	0.000000	0.000000	0.000000	0.000000	0.000000	0.000000	0.000000	25.325113	0.678796	0.000000	0.000000	0.000000	0.000000	37.539885	3.186799	8.258038	2.058588	11.293584	0.658372	0.000000	301.258620	0.000000	38.242388	0.000000	20.460104
1.164000	343.293458	181.116383	151.131713	64.421675	64.309806	62.916253	42.679504	22.901034	0.000000	323.327057	14.216334	0.000000	0.000000	0.000000	0.000000	0.000000	33.264143	0.000000	0.000000	0.000000	0.000000	0.000000	253.969363	306.803934	0.000000	0.000000	30.800293	0.000000	0.000000	0.000000	0.000000	1358.723060	282.047160	734.937831	423.523280	4.342302	2.159398	85.513308	0.000000	0.000000	0.000000	7.810534	5.150300	4.309821	5.262009	10.866834	1.461197	2.515874	3.945060	270.269532	25.298505	90.483352	128.961451	3.141663	0.000000	0.000000	0.000000	0.000000	0.000000	1.306667	0.000000	1.101664	0.000000	0.000000	0.000000	41.953130	43.605343	0.000000	0.552365	6.369854	0.000000	0.000000	0.000000	0.000000	45.417296	1.616996	0.000000	0.000000	1.627217	0.062604	56.187756	6.224550	18.596321	3.343626	10.144283	0.034720	0.000000	319.086507	0.000000	37.083497	0.000000	9.624838
1.180000	332.402288	179.139505	140.589543	64.110602	62.393249	58.275869	44.301291	27.366819	0.000000	342.665208	14.405232	0.000000	0.000000	0.000000	0.000000	0.000000	32.387684	0.000000	0.000000	0.000000	0.000000	0.000000	251.234524	301.370129	0.000000	0.000000	24.354786	0.000000	0.000000	0.000000	0.000000	1432.458647	297.306702	763.043470	446.535640	4.477270	2.228559	85.992573	0.000000	0.000000	0.000000	8.188729	5.228463	10.204839	33.799483	72.067791	2.729443	7.458398	14.921758	304.833793	23.519355	85.860329	177.679069	6.766428	0.000000	0.000000	0.000000	0.000000	0.000000	6.177191	0.000000	0.000000	2.048053	0.000000	0.000000	48.448338	56.510983	0.000000	2.564024	28.520869	0.000000	0.000000	0.000000	0.000000	72.017172	2.357076	0.000000	0.000000	4.407162	1.889345	85.157321	11.273887	35.876651	5.412002	11.465743	0.000000	7.186792	332.778954	0.000000	39.375880	0.000000	0.000000
1.196000	314.561065	174.086481	130.647389	61.504342	58.948586	53.437932	44.047123	33.702139	5.431652	360.644524	14.401039	0.000000	0.000000	0.000000	0.000000	0.000000	30.432466	0.000000	0.000000	0.000000	0.000000	0.000000	246.874804	294.419518	0.000000	0.000000	18.833893	0.000000	0.000000	0.000000	0.000000	1485.402021	307.981943	828.877810	458.428498	4.470286	2.314731	89.260336	0.000000	0.000000	0.000000	8.219665	5.515408	13.778916	57.831998	122.280713	3.766265	11.905818	24.628727	299.209200	21.614092	74.693972	212.431631	10.314851	0.000000	0.000000	0.000000	0.000000	0.000000	13.268192	0.000000	0.000000	5.677500	0.000000	0.000000	57.740326	73.254297	0.972903	4.724356	49.230117	0.000000	0.000000	0.000000	0.000000	96.337421	3.571600	0.000000	0.000000	7.025759	3.622264	115.662664	16.594153	53.646934	7.606763	13.365267	0.000000	38.535399	341.848796	0.000000	48.870438	0.000000	0.000000
1.212000	296.934637	167.456958	120.139128	58.500937	55.707787	49.797848	35.569238	31.308759	0.000000	365.428909	14.833452	0.000000	0.000000	0.000000	0.000000	0.000000	29.382492	0.000000	0.000000	0.000000	0.000000	0.000000	272.109207	323.640457	0.000000	0.000000	14.157584	0.000000	0.000000	0.000000	0.000000	1463.543234	303.365580	949.181956	457.840599	4.118846	2.270723	92.527687	0.000000	0.000000	0.000000	7.456971	5.971656	16.918446	68.862140	140.379799	4.411435	14.422111	29.567930	224.196461	23.393700	72.606995	231.637699	12.408848	0.000000	0.000000	0.000000	0.000000	0.000000	16.620173	0.000000	0.000000	7.910232	4.722866	0.000000	60.364565	81.724190	2.020371	6.180403	59.659796	0.000000	0.000000	0.000000	0.000000	110.576321	7.513066	0.000000	0.000000	8.835250	4.868497	141.080811	20.985658	67.520031	9.463160	15.369411	0.000000	59.886284	344.207112	0.000000	58.132220	0.000000	0.000000
1.228000	280.287621	160.538048	113.066609	55.423928	52.994355	47.682284	25.791981	26.599839	0.000000	373.889748	15.641675	0.000000	0.000000	0.000000	0.000000	0.000000	28.633149	0.000000	0.000000	0.000000	0.000000	0.000000	321.317912	382.669095	0.000000	0.000000	12.720687	0.000000	0.000000	0.000000	0.000000	1363.639685	282.121283	1134.040136	453.549547	3.141786	1.821808	88.925952	0.000000	0.000000	0.000000	5.224920	6.532478	7.734973	62.399054	125.092735	3.413740	13.525238	27.874756	134.410841	17.524629	50.064409	210.479138	13.186550	0.000000	0.000000	0.000000	0.000000	0.000000	17.558678	0.000000	0.000000	7.845563	6.428024	0.000000	63.542749	87.800529	3.463989	6.912193	56.387185	0.000000	0.000000	0.000000	0.000000	90.357898	9.056859	0.000000	0.000000	8.266448	4.682096	136.157904	21.484364	68.998288	9.428332	14.880325	0.000000	68.371954	340.656887	0.000000	64.406252	0.000000	0.000000
1.244000	259.963116	147.693939	101.771693	51.619980	49.666495	45.166644	17.343206	22.965864	0.000000	389.863110	16.542062	0.000000	0.000000	0.000000	0.000000	0.000000	27.459711	0.000000	0.000000	0.000000	0.000000	0.000000	383.077453	457.274175	0.000000	0.000000	12.576045	0.000000	0.000000	0.000000	0.000000	1188.080963	247.485859	1371.143437	479.974161	2.004598	1.205766	80.441055	0.000000	0.000000	0.000000	1.780271	7.525481	12.010214	55.692063	102.321212	3.580848	12.874961	23.877655	113.245617	18.421595	51.609719	204.735064	12.988124	0.000000	0.000000	0.000000	0.000000	0.000000	15.295103	0.000000	0.000000	8.224657	10.424607	0.000000	37.953593	63.710057	3.420124	6.919997	44.452863	0.000000	0.000000	0.000000	0.000000	82.063887	10.308469	0.000000	0.000000	7.817578	4.415368	139.917531	19.794039	60.087936	9.391032	15.853812	0.000000	70.971999	331.306743	0.000000	65.254753	0.000000	0.000000
1.260000	236.945609	135.176985	101.951114	47.138325	46.003976	42.970212	8.053592	10.830495	0.000000	380.171839	17.194925	0.000000	0.000000	0.000000	0.000000	0.000000	26.559436	0.000000	0.000000	0.000000	0.000000	0.000000	425.422601	509.461152	0.000000	0.000000	19.541749	0.000000	0.000000	0.000000	0.000000	1012.628552	212.850703	1544.914774	501.096713	1.550364	1.212641	63.143502	0.000000	0.000000	0.000000	0.000000	7.965725	28.116030	41.848009	61.868980	2.606397	7.463002	11.804107	198.338241	45.993879	127.632948	216.954831	0.210538	0.000000	0.000000	0.000000	0.000000	0.000000	0.000000	0.000000	4.882374	12.097442	37.329877	8.307242	0.000000	0.000000	4.427594	3.363316	18.569608	0.000000	0.000000	0.000000	0.000000	66.787984	8.194536	0.000000	0.000000	8.183209	4.523683	160.729852	19.499705	54.507587	10.351465	18.953950	0.000000	83.402931	312.927019	0.000000	59.131973	0.000000	0.000000
1.276000	207.646169	114.223057	89.838709	41.151725	40.140011	37.276643	1.697518	0.000000	0.000000	341.731511	16.870930	0.000000	0.000000	0.000000	0.000000	0.000000	24.670977	0.000000	0.000000	0.000000	0.000000	0.000000	423.612873	507.474489	0.000000	0.000000	21.698048	0.000000	0.000000	0.000000	0.000000	884.619714	189.401429	1661.605117	560.248668	2.600202	2.231017	74.486806	0.000000	0.000000	0.000000	0.000000	9.014452	26.877493	20.458640	20.452445	0.000000	0.000000	0.619846	222.343651	66.753662	169.806146	179.460149	0.000000	0.000000	30.034047	22.274341	19.154198	51.292819	0.000000	0.000000	13.567202	13.575761	58.424989	60.842873	0.000000	0.000000	7.608050	0.000000	0.000000	0.000000	0.000000	0.000000	0.000000	0.000000	0.000000	0.000000	0.000000	7.904033	4.174278	171.480223	15.055354	33.862416	10.135666	20.979099	0.000000	119.616247	279.110165	0.000000	45.899455	0.000000	0.000000
1.292000	179.256537	85.182401	58.010412	37.146711	34.825664	29.675035	0.000000	0.000000	0.000000	227.609537	17.555624	0.000000	0.000000	0.000000	0.000000	0.000000	26.226172	0.000000	0.000000	0.000000	0.000000	0.000000	472.095129	564.175847	0.000000	0.000000	16.047488	29.247516	0.000000	0.000000	0.000000	700.548572	156.276863	1722.733377	621.565183	3.825618	3.108018	103.436815	0.000000	0.000000	0.000000	0.000000	10.191050	27.590919	11.248225	3.807992	1.020329	0.000000	0.000000	105.184445	40.819526	96.544208	0.000000	0.000000	29.043709	72.469523	45.591062	30.354209	62.895398	0.000000	0.000000	10.201220	10.769276	50.879834	66.312817	0.000000	0.000000	3.663200	0.000000	0.000000	0.000000	17.324974	21.193727	33.076483	0.000000	0.000000	0.000000	0.000000	14.265694	7.760928	302.898713	22.859682	44.751454	17.256584	34.241062	0.000000	180.717400	225.059829	0.000000	26.816603	0.000000	0.000000
